<svg width="648" height="233" viewBox="0 0 648 233" fill="none" xmlns="http://www.w3.org/2000/svg">
<path d="M87.8977 111.05V116.418H95.6197V118.31H87.8977V124.536H85.6977V109.136H96.5657V111.05H87.8977ZM99.7761 112.04H101.91V124.536H99.7761V112.04ZM115.067 118.222H117.135V123.106C116.534 123.619 115.808 124.015 114.957 124.294C114.106 124.572 113.226 124.712 112.317 124.712C111.012 124.712 109.831 124.433 108.775 123.876C107.734 123.318 106.912 122.556 106.311 121.588C105.724 120.605 105.431 119.505 105.431 118.288C105.431 117.07 105.724 115.978 106.311 115.01C106.898 114.027 107.712 113.257 108.753 112.7C109.794 112.142 110.953 111.864 112.229 111.864C114.429 111.864 116.108 112.516 117.267 113.822L115.903 115.208C114.95 114.21 113.74 113.712 112.273 113.712C111.378 113.712 110.572 113.91 109.853 114.306C109.149 114.687 108.592 115.23 108.181 115.934C107.785 116.623 107.587 117.408 107.587 118.288C107.587 119.153 107.785 119.938 108.181 120.642C108.592 121.331 109.156 121.874 109.875 122.27C110.608 122.666 111.43 122.864 112.339 122.864C113.395 122.864 114.304 122.629 115.067 122.16V118.222ZM133.114 124.536L133.092 115.868L128.78 123.04H127.79L123.478 116.066V124.536H121.432V112.04H123.258L128.318 120.444L133.29 112.04H135.138L135.16 124.536H133.114ZM147.839 121.566H141.129L139.809 124.536H137.719L143.439 112.04H145.551L151.293 124.536H149.137L147.839 121.566ZM147.091 119.872L144.495 113.976L141.877 119.872H147.091Z" fill="#F5E6D8"/>
<path d="M233 116.5C233 180.841 180.841 233 116.5 233C52.1588 233 0 180.841 0 116.5C0 52.1588 52.1588 0 116.5 0C180.841 0 233 52.1588 233 116.5ZM23.3 116.5C23.3 167.973 65.0271 209.7 116.5 209.7C167.973 209.7 209.7 167.973 209.7 116.5C209.7 65.0271 167.973 23.3 116.5 23.3C65.0271 23.3 23.3 65.0271 23.3 116.5Z" fill="#1B1917"/>
<path d="M116.5 0C144.239 3.30784e-07 171.068 9.89766 192.161 27.9127C213.254 45.9278 227.226 70.8779 231.566 98.2754C235.905 125.673 230.326 153.72 215.833 177.371C201.339 201.022 178.882 218.726 152.5 227.298C126.119 235.87 97.5449 234.747 71.9174 224.132C46.2898 213.517 25.291 194.106 12.6977 169.39C0.104482 144.674 -3.25664 116.276 3.21891 89.3036C9.69447 62.331 25.5817 38.5541 48.0231 22.2495L61.7184 41.0996C43.7654 54.1432 31.0556 73.1648 25.8751 94.7429C20.6947 116.321 23.3836 139.039 33.4582 158.812C43.5328 178.584 60.3319 194.113 80.8339 202.606C101.336 211.098 124.195 211.996 145.3 205.138C166.405 198.281 184.371 184.118 195.966 165.197C207.561 146.276 212.024 123.838 208.553 101.92C205.081 80.0023 193.903 60.0422 177.029 45.6302C160.154 31.2181 138.691 23.3 116.5 23.3V0Z" fill="#F5E6D8"/>
<path d="M513.974 95.1358V110.536H511.774V103.672H502.93V110.536H500.73V95.1358H502.93V101.758H511.774V95.1358H513.974ZM522.082 97.0498H516.802V95.1358H529.54V97.0498H524.26V110.536H522.082V97.0498ZM546.654 110.536L546.632 99.3158L541.066 108.666H540.054L534.488 99.3818V110.536H532.376V95.1358H534.18L540.604 105.96L546.94 95.1358H548.744L548.766 110.536H546.654ZM553.827 95.1358H556.027V108.622H564.365V110.536H553.827V95.1358ZM518.675 137.712C517.135 137.712 515.742 137.374 514.495 136.7C513.263 136.01 512.295 135.072 511.591 133.884C510.887 132.681 510.535 131.332 510.535 129.836C510.535 128.34 510.887 126.998 511.591 125.81C512.295 124.607 513.27 123.668 514.517 122.994C515.764 122.304 517.157 121.96 518.697 121.96C519.9 121.96 521 122.165 521.997 122.576C522.994 122.972 523.845 123.566 524.549 124.358L523.119 125.744C521.96 124.526 520.516 123.918 518.785 123.918C517.641 123.918 516.607 124.174 515.683 124.688C514.759 125.201 514.033 125.912 513.505 126.822C512.992 127.716 512.735 128.721 512.735 129.836C512.735 130.95 512.992 131.962 513.505 132.872C514.033 133.766 514.759 134.47 515.683 134.984C516.607 135.497 517.641 135.754 518.785 135.754C520.501 135.754 521.946 135.138 523.119 133.906L524.549 135.292C523.845 136.084 522.987 136.685 521.975 137.096C520.978 137.506 519.878 137.712 518.675 137.712ZM532.551 137.712C531.392 137.712 530.27 137.536 529.185 137.184C528.114 136.817 527.271 136.348 526.655 135.776L527.469 134.06C528.056 134.588 528.804 135.02 529.713 135.358C530.637 135.68 531.583 135.842 532.551 135.842C533.827 135.842 534.78 135.629 535.411 135.204C536.042 134.764 536.357 134.184 536.357 133.466C536.357 132.938 536.181 132.512 535.829 132.19C535.492 131.852 535.066 131.596 534.553 131.42C534.054 131.244 533.343 131.046 532.419 130.826C531.26 130.547 530.322 130.268 529.603 129.99C528.899 129.711 528.29 129.286 527.777 128.714C527.278 128.127 527.029 127.342 527.029 126.36C527.029 125.538 527.242 124.798 527.667 124.138C528.107 123.478 528.767 122.95 529.647 122.554C530.527 122.158 531.62 121.96 532.925 121.96C533.834 121.96 534.729 122.077 535.609 122.312C536.489 122.546 537.244 122.884 537.875 123.324L537.149 125.084C536.504 124.673 535.814 124.365 535.081 124.16C534.348 123.94 533.629 123.83 532.925 123.83C531.678 123.83 530.74 124.057 530.109 124.512C529.493 124.966 529.185 125.553 529.185 126.272C529.185 126.8 529.361 127.232 529.713 127.57C530.065 127.892 530.498 128.149 531.011 128.34C531.539 128.516 532.25 128.706 533.145 128.912C534.304 129.19 535.235 129.469 535.939 129.748C536.643 130.026 537.244 130.452 537.743 131.024C538.256 131.596 538.513 132.366 538.513 133.334C538.513 134.14 538.293 134.881 537.853 135.556C537.413 136.216 536.746 136.744 535.851 137.14C534.956 137.521 533.856 137.712 532.551 137.712ZM546.655 137.712C545.496 137.712 544.374 137.536 543.289 137.184C542.218 136.817 541.375 136.348 540.759 135.776L541.573 134.06C542.16 134.588 542.908 135.02 543.817 135.358C544.741 135.68 545.687 135.842 546.655 135.842C547.931 135.842 548.884 135.629 549.515 135.204C550.146 134.764 550.461 134.184 550.461 133.466C550.461 132.938 550.285 132.512 549.933 132.19C549.596 131.852 549.17 131.596 548.657 131.42C548.158 131.244 547.447 131.046 546.523 130.826C545.364 130.547 544.426 130.268 543.707 129.99C543.003 129.711 542.394 129.286 541.881 128.714C541.382 128.127 541.133 127.342 541.133 126.36C541.133 125.538 541.346 124.798 541.771 124.138C542.211 123.478 542.871 122.95 543.751 122.554C544.631 122.158 545.724 121.96 547.029 121.96C547.938 121.96 548.833 122.077 549.713 122.312C550.593 122.546 551.348 122.884 551.979 123.324L551.253 125.084C550.608 124.673 549.918 124.365 549.185 124.16C548.452 123.94 547.733 123.83 547.029 123.83C545.782 123.83 544.844 124.057 544.213 124.512C543.597 124.966 543.289 125.553 543.289 126.272C543.289 126.8 543.465 127.232 543.817 127.57C544.169 127.892 544.602 128.149 545.115 128.34C545.643 128.516 546.354 128.706 547.249 128.912C548.408 129.19 549.339 129.469 550.043 129.748C550.747 130.026 551.348 130.452 551.847 131.024C552.36 131.596 552.617 132.366 552.617 133.334C552.617 134.14 552.397 134.881 551.957 135.556C551.517 136.216 550.85 136.744 549.955 137.14C549.06 137.521 547.96 137.712 546.655 137.712Z" fill="#F5E6D8"/>
<path d="M648 116.5C648 180.841 595.841 233 531.5 233C467.159 233 415 180.841 415 116.5C415 52.1588 467.159 0 531.5 0C595.841 0 648 52.1588 648 116.5ZM438.3 116.5C438.3 167.973 480.027 209.7 531.5 209.7C582.973 209.7 624.7 167.973 624.7 116.5C624.7 65.0271 582.973 23.3 531.5 23.3C480.027 23.3 438.3 65.0271 438.3 116.5Z" fill="#1B1917"/>
<path d="M531.5 0C546.799 1.82439e-07 561.948 3.01336 576.083 8.86804C590.217 14.7227 603.06 23.304 613.878 34.1221C624.696 44.9401 633.277 57.783 639.132 71.9174C644.987 86.0518 648 101.201 648 116.5L624.7 116.5C624.7 104.261 622.289 92.1415 617.606 80.8339C612.922 69.5264 606.057 59.2521 597.402 50.5977C588.748 41.9432 578.474 35.0782 567.166 30.3944C555.859 25.7107 543.739 23.3 531.5 23.3V0Z" fill="#F5E6D8"/>
</svg>
