<svg width="648" height="233" viewBox="0 0 648 233" fill="none" xmlns="http://www.w3.org/2000/svg">
<path d="M58.5277 110.8C60.5224 110.8 62.0917 111.277 63.2357 112.23C64.3797 113.183 64.9517 114.496 64.9517 116.168C64.9517 117.84 64.3797 119.153 63.2357 120.106C62.0917 121.059 60.5224 121.536 58.5277 121.536H54.7217V126.2H52.5217V110.8H58.5277ZM58.4617 119.622C59.855 119.622 60.9184 119.329 61.6517 118.742C62.385 118.141 62.7517 117.283 62.7517 116.168C62.7517 115.053 62.385 114.203 61.6517 113.616C60.9184 113.015 59.855 112.714 58.4617 112.714H54.7217V119.622H58.4617ZM68.6627 113.704H70.7967V118.984H77.6387V113.704H79.7727V126.2H77.6387V120.744H70.7967V126.2H68.6627V113.704ZM90.1175 126.376C88.8415 126.376 87.6828 126.097 86.6415 125.54C85.6001 124.983 84.7861 124.22 84.1995 123.252C83.6128 122.269 83.3195 121.169 83.3195 119.952C83.3195 118.735 83.6128 117.642 84.1995 116.674C84.7861 115.691 85.6001 114.921 86.6415 114.364C87.6828 113.807 88.8415 113.528 90.1175 113.528C91.4081 113.528 92.5668 113.807 93.5935 114.364C94.6348 114.921 95.4488 115.691 96.0355 116.674C96.6221 117.642 96.9155 118.735 96.9155 119.952C96.9155 121.169 96.6221 122.269 96.0355 123.252C95.4488 124.22 94.6348 124.983 93.5935 125.54C92.5668 126.097 91.4081 126.376 90.1175 126.376ZM90.1175 124.528C90.9975 124.528 91.7895 124.33 92.4935 123.934C93.1975 123.538 93.7475 122.995 94.1435 122.306C94.5541 121.617 94.7595 120.832 94.7595 119.952C94.7595 119.072 94.5541 118.287 94.1435 117.598C93.7475 116.909 93.1975 116.366 92.4935 115.97C91.7895 115.574 90.9975 115.376 90.1175 115.376C89.2375 115.376 88.4455 115.574 87.7415 115.97C87.0375 116.366 86.4801 116.909 86.0695 117.598C85.6735 118.287 85.4755 119.072 85.4755 119.952C85.4755 120.832 85.6735 121.617 86.0695 122.306C86.4801 122.995 87.0375 123.538 87.7415 123.934C88.4455 124.33 89.2375 124.528 90.1175 124.528ZM102.466 115.464H98.1978V113.704H108.868V115.464H104.6V126.2H102.466V115.464ZM116.951 126.376C115.675 126.376 114.516 126.097 113.475 125.54C112.433 124.983 111.619 124.22 111.033 123.252C110.446 122.269 110.153 121.169 110.153 119.952C110.153 118.735 110.446 117.642 111.033 116.674C111.619 115.691 112.433 114.921 113.475 114.364C114.516 113.807 115.675 113.528 116.951 113.528C118.241 113.528 119.4 113.807 120.427 114.364C121.468 114.921 122.282 115.691 122.869 116.674C123.455 117.642 123.749 118.735 123.749 119.952C123.749 121.169 123.455 122.269 122.869 123.252C122.282 124.22 121.468 124.983 120.427 125.54C119.4 126.097 118.241 126.376 116.951 126.376ZM116.951 124.528C117.831 124.528 118.623 124.33 119.327 123.934C120.031 123.538 120.581 122.995 120.977 122.306C121.387 121.617 121.593 120.832 121.593 119.952C121.593 119.072 121.387 118.287 120.977 117.598C120.581 116.909 120.031 116.366 119.327 115.97C118.623 115.574 117.831 115.376 116.951 115.376C116.071 115.376 115.279 115.574 114.575 115.97C113.871 116.366 113.313 116.909 112.903 117.598C112.507 118.287 112.309 119.072 112.309 119.952C112.309 120.832 112.507 121.617 112.903 122.306C113.313 122.995 113.871 123.538 114.575 123.934C115.279 124.33 116.071 124.528 116.951 124.528ZM130.944 126.376C129.976 126.376 129.03 126.244 128.106 125.98C127.196 125.701 126.485 125.335 125.972 124.88L126.808 123.208C127.306 123.619 127.93 123.949 128.678 124.198C129.44 124.447 130.225 124.572 131.032 124.572C132.014 124.572 132.733 124.411 133.188 124.088C133.657 123.765 133.892 123.347 133.892 122.834C133.892 122.438 133.752 122.115 133.474 121.866C133.21 121.617 132.872 121.426 132.462 121.294C132.051 121.162 131.494 121.023 130.79 120.876C129.836 120.671 129.059 120.458 128.458 120.238C127.871 120.018 127.365 119.673 126.94 119.204C126.529 118.72 126.324 118.067 126.324 117.246C126.324 116.131 126.771 115.237 127.666 114.562C128.575 113.873 129.807 113.528 131.362 113.528C132.154 113.528 132.916 113.623 133.65 113.814C134.398 113.99 135.036 114.254 135.564 114.606L134.794 116.322C133.84 115.662 132.674 115.332 131.296 115.332C130.342 115.332 129.631 115.501 129.162 115.838C128.692 116.161 128.458 116.586 128.458 117.114C128.458 117.51 128.59 117.833 128.854 118.082C129.132 118.331 129.477 118.522 129.888 118.654C130.313 118.786 130.878 118.925 131.582 119.072C132.55 119.292 133.32 119.512 133.892 119.732C134.478 119.937 134.977 120.275 135.388 120.744C135.813 121.213 136.026 121.844 136.026 122.636C136.026 123.78 135.571 124.689 134.662 125.364C133.767 126.039 132.528 126.376 130.944 126.376ZM139.419 113.704H141.553V118.984H148.395V113.704H150.529V126.2H148.395V120.744H141.553V126.2H139.419V113.704ZM160.874 126.376C159.598 126.376 158.439 126.097 157.398 125.54C156.357 124.983 155.543 124.22 154.956 123.252C154.369 122.269 154.076 121.169 154.076 119.952C154.076 118.735 154.369 117.642 154.956 116.674C155.543 115.691 156.357 114.921 157.398 114.364C158.439 113.807 159.598 113.528 160.874 113.528C162.165 113.528 163.323 113.807 164.35 114.364C165.391 114.921 166.205 115.691 166.792 116.674C167.379 117.642 167.672 118.735 167.672 119.952C167.672 121.169 167.379 122.269 166.792 123.252C166.205 124.22 165.391 124.983 164.35 125.54C163.323 126.097 162.165 126.376 160.874 126.376ZM160.874 124.528C161.754 124.528 162.546 124.33 163.25 123.934C163.954 123.538 164.504 122.995 164.9 122.306C165.311 121.617 165.516 120.832 165.516 119.952C165.516 119.072 165.311 118.287 164.9 117.598C164.504 116.909 163.954 116.366 163.25 115.97C162.546 115.574 161.754 115.376 160.874 115.376C159.994 115.376 159.202 115.574 158.498 115.97C157.794 116.366 157.237 116.909 156.826 117.598C156.43 118.287 156.232 119.072 156.232 119.952C156.232 120.832 156.43 121.617 156.826 122.306C157.237 122.995 157.794 123.538 158.498 123.934C159.202 124.33 159.994 124.528 160.874 124.528ZM176.319 113.704C177.977 113.704 179.282 114.093 180.235 114.87C181.189 115.647 181.665 116.725 181.665 118.104C181.665 119.497 181.189 120.583 180.235 121.36C179.282 122.137 177.977 122.526 176.319 122.526H173.349V126.2H171.215V113.704H176.319ZM176.187 120.744C177.273 120.744 178.094 120.517 178.651 120.062C179.223 119.607 179.509 118.955 179.509 118.104C179.509 117.253 179.223 116.601 178.651 116.146C178.094 115.691 177.273 115.464 176.187 115.464H173.349V120.744H176.187Z" fill="#F5E6D8"/>
<path d="M233 116.5C233 180.841 180.841 233 116.5 233C52.1588 233 0 180.841 0 116.5C0 52.1588 52.1588 0 116.5 0C180.841 0 233 52.1588 233 116.5ZM23.3 116.5C23.3 167.973 65.0271 209.7 116.5 209.7C167.973 209.7 209.7 167.973 209.7 116.5C209.7 65.0271 167.973 23.3 116.5 23.3C65.0271 23.3 23.3 65.0271 23.3 116.5Z" fill="#1B1917"/>
<path d="M116.5 0C133.34 2.00819e-07 149.98 3.65096 165.274 10.7013C180.567 17.7517 194.15 28.0338 205.087 40.8393C216.024 53.6448 224.055 68.6691 228.626 84.8772C233.197 101.085 234.2 118.092 231.566 134.725C228.931 151.358 222.722 167.222 213.366 181.224C204.01 195.226 191.73 207.034 177.371 215.833C163.012 224.632 146.917 230.213 130.193 232.192C113.47 234.172 96.5157 232.502 80.4996 227.298L87.6997 205.138C100.513 209.302 114.076 210.637 127.455 209.054C140.833 207.47 153.71 203.005 165.197 195.966C176.684 188.927 186.508 179.481 193.993 168.279C201.478 157.077 206.445 144.386 208.553 131.08C210.66 117.773 209.858 104.168 206.201 91.2017C202.544 78.2353 196.119 66.2158 187.37 55.9714C178.62 45.7271 167.754 37.5013 155.519 31.861C143.284 26.2208 129.972 23.3 116.5 23.3V0Z" fill="#F5E6D8"/>
<path d="M510.021 108.35H501.837L500.143 112.2H497.877L504.851 96.8H507.029L514.025 112.2H511.715L510.021 108.35ZM509.251 106.59L505.929 99.044L502.607 106.59H509.251ZM518.721 101.464V105.534H524.947V107.294H518.721V112.2H516.587V99.704H525.717V101.464H518.721ZM531.323 101.464H527.055V99.704H537.725V101.464H533.457V112.2H531.323V101.464ZM549.762 110.418V112.2H540.39V99.704H549.52V101.464H542.524V104.984H548.75V106.722H542.524V110.418H549.762ZM561.737 112.2L559.053 108.46C558.936 108.475 558.745 108.482 558.481 108.482H555.511V112.2H553.377V99.704H558.481C560.139 99.704 561.444 100.093 562.397 100.87C563.351 101.647 563.827 102.725 563.827 104.104C563.827 105.057 563.585 105.871 563.101 106.546C562.632 107.221 561.957 107.727 561.077 108.064L564.047 112.2H561.737ZM558.349 106.744C559.435 106.744 560.256 106.517 560.813 106.062C561.385 105.607 561.671 104.955 561.671 104.104C561.671 103.253 561.385 102.601 560.813 102.146C560.256 101.691 559.435 101.464 558.349 101.464H555.511V106.744H558.349ZM500.117 137.286V139.2H488.941V123.8H499.809V125.714H491.141V130.444H498.863V132.314H491.141V137.286H500.117ZM506.077 128.464V132.534H512.303V134.294H506.077V139.2H503.943V126.704H513.073V128.464H506.077ZM518.484 128.464V132.534H524.71V134.294H518.484V139.2H516.35V126.704H525.48V128.464H518.484ZM538.129 137.418V139.2H528.757V126.704H537.887V128.464H530.891V131.984H537.117V133.722H530.891V137.418H538.129ZM547.289 139.376C546.013 139.376 544.855 139.097 543.813 138.54C542.787 137.983 541.98 137.22 541.393 136.252C540.807 135.269 540.513 134.169 540.513 132.952C540.513 131.735 540.807 130.642 541.393 129.674C541.98 128.691 542.787 127.921 543.813 127.364C544.855 126.807 546.013 126.528 547.289 126.528C549.445 126.528 551.088 127.181 552.217 128.486L550.853 129.872C549.915 128.875 548.749 128.376 547.355 128.376C546.461 128.376 545.654 128.574 544.935 128.97C544.231 129.351 543.674 129.894 543.263 130.598C542.867 131.287 542.669 132.072 542.669 132.952C542.669 133.817 542.867 134.602 543.263 135.306C543.674 135.995 544.231 136.538 544.935 136.934C545.654 137.33 546.461 137.528 547.355 137.528C548.734 137.528 549.9 137.022 550.853 136.01L552.217 137.396C551.073 138.716 549.431 139.376 547.289 139.376ZM557.748 128.464H553.48V126.704H564.15V128.464H559.882V139.2H557.748V128.464ZM570.467 139.376C569.499 139.376 568.553 139.244 567.629 138.98C566.72 138.701 566.009 138.335 565.495 137.88L566.331 136.208C566.83 136.619 567.453 136.949 568.201 137.198C568.964 137.447 569.749 137.572 570.555 137.572C571.538 137.572 572.257 137.411 572.711 137.088C573.181 136.765 573.415 136.347 573.415 135.834C573.415 135.438 573.276 135.115 572.997 134.866C572.733 134.617 572.396 134.426 571.985 134.294C571.575 134.162 571.017 134.023 570.313 133.876C569.36 133.671 568.583 133.458 567.981 133.238C567.395 133.018 566.889 132.673 566.463 132.204C566.053 131.72 565.847 131.067 565.847 130.246C565.847 129.131 566.295 128.237 567.189 127.562C568.099 126.873 569.331 126.528 570.885 126.528C571.677 126.528 572.44 126.623 573.173 126.814C573.921 126.99 574.559 127.254 575.087 127.606L574.317 129.322C573.364 128.662 572.198 128.332 570.819 128.332C569.866 128.332 569.155 128.501 568.685 128.838C568.216 129.161 567.981 129.586 567.981 130.114C567.981 130.51 568.113 130.833 568.377 131.082C568.656 131.331 569.001 131.522 569.411 131.654C569.837 131.786 570.401 131.925 571.105 132.072C572.073 132.292 572.843 132.512 573.415 132.732C574.002 132.937 574.501 133.275 574.911 133.744C575.337 134.213 575.549 134.844 575.549 135.636C575.549 136.78 575.095 137.689 574.185 138.364C573.291 139.039 572.051 139.376 570.467 139.376Z" fill="#F5E6D8"/>
<path d="M648 116.5C648 180.841 595.841 233 531.5 233C467.159 233 415 180.841 415 116.5C415 52.1588 467.159 0 531.5 0C595.841 0 648 52.1588 648 116.5ZM438.3 116.5C438.3 167.973 480.027 209.7 531.5 209.7C582.973 209.7 624.7 167.973 624.7 116.5C624.7 65.0271 582.973 23.3 531.5 23.3C480.027 23.3 438.3 65.0271 438.3 116.5Z" fill="#1B1917"/>
<path d="M531.5 0C556.102 2.93381e-07 580.073 7.78861 599.977 22.2495L586.282 41.0996C570.359 29.5309 551.182 23.3 531.5 23.3V0Z" fill="#F5E6D8"/>
</svg>
